<svg width="24" height="24" viewBox="0 0 24 24" fill="none" xmlns="http://www.w3.org/2000/svg">
<path d="M15.3333 12.2382C15.3333 12.0488 15.258 11.8671 15.1241 11.7331C14.9901 11.5992 14.8085 11.5239 14.619 11.5239H9.85711C9.66767 11.5239 9.48599 11.5992 9.35204 11.7331C9.21808 11.8671 9.14283 12.0488 9.14283 12.2382V12.7144C9.14283 13.6668 10.46 14.3811 12.2381 14.3811C14.0162 14.3811 15.3333 13.6668 15.3333 12.7144V12.2382ZM13.9047 8.90013C13.9047 7.98108 13.159 7.23822 12.2381 7.23822C11.3171 7.23822 10.5714 7.98013 10.5714 8.90013C10.5714 9.34216 10.747 9.76608 11.0596 10.0786C11.3721 10.3912 11.796 10.5668 12.2381 10.5668C12.6801 10.5668 13.104 10.3912 13.4166 10.0786C13.7291 9.76608 13.9047 9.34216 13.9047 8.90013ZM4.38092 4.85727C4.38092 4.2258 4.63177 3.6202 5.07829 3.17368C5.5248 2.72717 6.1304 2.47632 6.76187 2.47632H17.7143C18.0269 2.47632 18.3365 2.5379 18.6254 2.65756C18.9143 2.77721 19.1767 2.95259 19.3978 3.17368C19.6189 3.39478 19.7943 3.65725 19.914 3.94612C20.0336 4.23499 20.0952 4.5446 20.0952 4.85727V18.4287C20.0952 18.6181 20.02 18.7998 19.886 18.9338C19.752 19.0677 19.5704 19.143 19.3809 19.143H5.80949C5.80949 19.3956 5.90983 19.6378 6.08844 19.8164C6.26704 19.995 6.50929 20.0954 6.76187 20.0954H19.3809C19.5704 20.0954 19.752 20.1706 19.886 20.3046C20.02 20.4385 20.0952 20.6202 20.0952 20.8097C20.0952 20.9991 20.02 21.1808 19.886 21.3147C19.752 21.4487 19.5704 21.5239 19.3809 21.5239H6.76187C6.1304 21.5239 5.5248 21.2731 5.07829 20.8266C4.63177 20.3801 4.38092 19.7745 4.38092 19.143V4.85727ZM5.80949 4.85727V17.7144H18.6666V4.85727C18.6666 4.60468 18.5663 4.36244 18.3877 4.18384C18.2091 4.00523 17.9668 3.90489 17.7143 3.90489H6.76187C6.50929 3.90489 6.26704 4.00523 6.08844 4.18384C5.90983 4.36244 5.80949 4.60468 5.80949 4.85727Z" fill="#673AB7"/>
</svg>
