<svg width="12" height="12" viewBox="0 0 12 12" fill="none" xmlns="http://www.w3.org/2000/svg">
<g clip-path="url(#clip0_66_2431)">
<path fill-rule="evenodd" clip-rule="evenodd" d="M6 1.5C3.51472 1.5 1.5 3.51472 1.5 6C1.5 8.48528 3.51472 10.5 6 10.5C8.48528 10.5 10.5 8.48528 10.5 6C10.5 3.51472 8.48528 1.5 6 1.5ZM0.5 6C0.5 2.96243 2.96243 0.5 6 0.5C9.03757 0.5 11.5 2.96243 11.5 6C11.5 9.03757 9.03757 11.5 6 11.5C2.96243 11.5 0.5 9.03757 0.5 6Z" fill="#FF0000"/>
<path fill-rule="evenodd" clip-rule="evenodd" d="M6.12912 4.0122C5.89636 3.97228 5.65698 4.01602 5.45338 4.13567C5.24978 4.25533 5.09509 4.44319 5.01673 4.66596C4.92509 4.92646 4.63963 5.06334 4.37914 4.97171C4.11864 4.88007 3.98175 4.59461 4.07339 4.33412C4.23013 3.88857 4.53949 3.51286 4.94669 3.27354C5.3539 3.03423 5.83265 2.94675 6.29818 3.02659C6.7637 3.10644 7.18594 3.34847 7.49011 3.70981C7.79422 4.07107 7.96069 4.52828 7.96006 5.0005C7.95983 5.76568 7.39253 6.27099 6.98741 6.54107C6.76959 6.68628 6.55534 6.79305 6.3975 6.8632C6.31788 6.89859 6.25082 6.92544 6.20251 6.94385C6.17831 6.95307 6.15869 6.96021 6.14441 6.96529L6.12704 6.97137L6.12151 6.97326L6.11956 6.97392L6.1188 6.97417C6.11865 6.97422 6.11817 6.97438 5.96006 6.50004L6.11817 6.97438C5.8562 7.06171 5.57304 6.92013 5.48572 6.65816C5.39845 6.39636 5.53978 6.1134 5.80142 6.02587L5.80078 6.02609C5.80083 6.02607 5.80088 6.02606 5.80142 6.02587L5.8094 6.02307C5.81709 6.02034 5.8297 6.01577 5.84651 6.00936C5.88023 5.99652 5.93037 5.9765 5.99136 5.94939C6.11478 5.89453 6.27552 5.81381 6.43271 5.70902C6.77751 5.47915 6.96006 5.23461 6.96006 5.00004L6.96006 4.9993C6.96041 4.76314 6.87717 4.53447 6.72508 4.35381C6.573 4.17314 6.36188 4.05213 6.12912 4.0122Z" fill="#FF0000"/>
<path fill-rule="evenodd" clip-rule="evenodd" d="M5.5 8.5C5.5 8.22386 5.72386 8 6 8H6.005C6.28114 8 6.505 8.22386 6.505 8.5C6.505 8.77614 6.28114 9 6.005 9H6C5.72386 9 5.5 8.77614 5.5 8.5Z" fill="#FF0000"/>
</g>
<defs>
<clipPath id="clip0_66_2431">
<rect width="12" height="12" fill="white"/>
</clipPath>
</defs>
</svg>
