<svg width="24" height="24" viewBox="0 0 24 24" fill="none" xmlns="http://www.w3.org/2000/svg">
<g clip-path="url(#clip0_116_1912)">
<path d="M1.5238 19.6193V18.6669C1.5238 16.8988 2.22618 15.2031 3.47643 13.9529C4.72667 12.7026 6.42236 12.0002 8.19047 12.0002C9.95858 12.0002 11.6543 12.7026 12.9045 13.9529C14.1548 15.2031 14.8571 16.8988 14.8571 18.6669V19.6193" stroke="#673AB7" stroke-width="2" stroke-linecap="round"/>
<path d="M12.9524 13.905C12.9524 12.642 13.4541 11.4308 14.3471 10.5378C15.2402 9.64477 16.4514 9.14307 17.7143 9.14307C18.3396 9.14307 18.9589 9.26624 19.5366 9.50554C20.1143 9.74485 20.6393 10.0956 21.0815 10.5378C21.5237 10.98 21.8744 11.5049 22.1137 12.0827C22.353 12.6604 22.4762 13.2796 22.4762 13.905V14.3812" stroke="#673AB7" stroke-width="2" stroke-linecap="round"/>
<path d="M8.19044 12.0001C9.20079 12.0001 10.1698 11.5988 10.8842 10.8844C11.5986 10.1699 12 9.20096 12 8.19062C12 7.18027 11.5986 6.2113 10.8842 5.49688C10.1698 4.78245 9.20079 4.38109 8.19044 4.38109C7.1801 4.38109 6.21113 4.78245 5.4967 5.49688C4.78228 6.2113 4.38092 7.18027 4.38092 8.19062C4.38092 9.20096 4.78228 10.1699 5.4967 10.8844C6.21113 11.5988 7.1801 12.0001 8.19044 12.0001ZM17.7143 9.143C18.472 9.143 19.1987 8.84198 19.7346 8.30616C20.2704 7.77034 20.5714 7.04361 20.5714 6.28585C20.5714 5.52809 20.2704 4.80137 19.7346 4.26555C19.1987 3.72973 18.472 3.42871 17.7143 3.42871C16.9565 3.42871 16.2298 3.72973 15.6939 4.26555C15.1581 4.80137 14.8571 5.52809 14.8571 6.28585C14.8571 7.04361 15.1581 7.77034 15.6939 8.30616C16.2298 8.84198 16.9565 9.143 17.7143 9.143Z" stroke="#673AB7" stroke-width="2" stroke-linecap="round" stroke-linejoin="round"/>
</g>
<defs>
<clipPath id="clip0_116_1912">
<rect width="22.8571" height="22.8571" fill="white" transform="translate(0.571411 0.571533)"/>
</clipPath>
</defs>
</svg>
