<svg width="32" height="36" viewBox="0 0 32 36" fill="none" xmlns="http://www.w3.org/2000/svg">
<path fill-rule="evenodd" clip-rule="evenodd" d="M4.33571 0.0570378C4.46553 0.0193032 4.6026 0 4.74074 0H14.2222C14.8768 0 15.4074 0.424151 15.4074 0.947368V34.1053H17.7778V1.98086C17.7778 1.63418 18.0147 1.31518 18.3954 1.14917L20.7658 0.115678C20.9399 0.0397737 21.135 0 21.3333 0H30.8148C31.4694 0 32 0.424151 32 0.947368V36H29.6296V1.89474H21.6355L20.1481 2.54325V35.0526C20.1481 35.5758 19.6175 36 18.963 36H14.2222C13.5677 36 13.037 35.5758 13.037 35.0526V1.89474H4.94954L2.37037 2.64442V36H0V1.98086C0 1.58249 0.311784 1.22667 0.780156 1.09053L4.33571 0.0570378ZM7.11111 3.10048V36H4.74074V3.10048H7.11111ZM24.8889 3.10048V36H22.5185V3.10048H24.8889Z" fill="#FF4081"/>
</svg>
