<svg width="24" height="24" viewBox="0 0 24 24" fill="none" xmlns="http://www.w3.org/2000/svg">
<path d="M13.4286 11.9999C13.4286 12.2824 13.3448 12.5586 13.1878 12.7935C13.0308 13.0285 12.8077 13.2116 12.5467 13.3197C12.2857 13.4278 11.9984 13.4561 11.7213 13.401C11.4442 13.3459 11.1896 13.2098 10.9898 13.01C10.7901 12.8102 10.654 12.5557 10.5989 12.2786C10.5438 12.0014 10.572 11.7142 10.6802 11.4532C10.7883 11.1921 10.9714 10.969 11.2063 10.812C11.4413 10.6551 11.7175 10.5713 12 10.5713C12.3789 10.5713 12.7422 10.7218 13.0102 10.9897C13.2781 11.2576 13.4286 11.621 13.4286 11.9999ZM5.92857 10.5713C5.64603 10.5713 5.36983 10.6551 5.1349 10.812C4.89997 10.969 4.71687 11.1921 4.60874 11.4532C4.50062 11.7142 4.47233 12.0014 4.52745 12.2786C4.58257 12.5557 4.71863 12.8102 4.91842 13.01C5.11821 13.2098 5.37276 13.3459 5.64987 13.401C5.92699 13.4561 6.21423 13.4278 6.47526 13.3197C6.7363 13.2116 6.95941 13.0285 7.11639 12.7935C7.27336 12.5586 7.35714 12.2824 7.35714 11.9999C7.35714 11.621 7.20663 11.2576 6.93872 10.9897C6.67082 10.7218 6.30745 10.5713 5.92857 10.5713ZM18.0714 10.5713C17.7889 10.5713 17.5127 10.6551 17.2778 10.812C17.0428 10.969 16.8597 11.1921 16.7516 11.4532C16.6435 11.7142 16.6152 12.0014 16.6703 12.2786C16.7254 12.5557 16.8615 12.8102 17.0613 13.01C17.2611 13.2098 17.5156 13.3459 17.7927 13.401C18.0698 13.4561 18.3571 13.4278 18.6181 13.3197C18.8792 13.2116 19.1023 13.0285 19.2592 12.7935C19.4162 12.5586 19.5 12.2824 19.5 11.9999C19.5 11.621 19.3495 11.2576 19.0816 10.9897C18.8137 10.7218 18.4503 10.5713 18.0714 10.5713Z" fill="#673AB7" stroke="#673AB7"/>
</svg>
