<svg width="24" height="24" viewBox="0 0 24 24" fill="none" xmlns="http://www.w3.org/2000/svg">
<path d="M7.23807 17.6668L12 15.6192L16.7619 17.6668V5.33347H7.23807V17.6668ZM6.66665 20.0001C6.34919 20.1271 6.0476 20.0992 5.76188 19.9163C5.47617 19.7335 5.33331 19.4681 5.33331 19.1201V5.33347C5.33331 4.80966 5.51998 4.36109 5.89331 3.98776C6.26665 3.61443 6.7149 3.42808 7.23807 3.42871H16.7619C17.2857 3.42871 17.7343 3.61538 18.1076 3.98871C18.4809 4.36205 18.6673 4.8103 18.6666 5.33347V19.1192C18.6666 19.4684 18.5238 19.7344 18.2381 19.9173C17.9524 20.1001 17.6508 20.1278 17.3333 20.0001L12 17.7144L6.66665 20.0001Z" fill="#673AB7"/>
</svg>
