<svg width="24" height="24" viewBox="0 0 24 24" fill="none" xmlns="http://www.w3.org/2000/svg">
<g clip-path="url(#clip0_116_1924)">
<path d="M12 14.8574C13.5779 14.8574 14.8571 13.5782 14.8571 12.0002C14.8571 10.4223 13.5779 9.14307 12 9.14307C10.422 9.14307 9.14282 10.4223 9.14282 12.0002C9.14282 13.5782 10.422 14.8574 12 14.8574Z" stroke="#FF4081" stroke-width="2" stroke-linecap="round" stroke-linejoin="round"/>
<path d="M19.0476 14.8573C18.9208 15.1445 18.883 15.4632 18.939 15.7721C18.9951 16.0811 19.1423 16.3661 19.3619 16.5906L19.419 16.6477C19.5961 16.8246 19.7366 17.0347 19.8325 17.2659C19.9283 17.4972 19.9777 17.745 19.9777 17.9954C19.9777 18.2457 19.9283 18.4935 19.8325 18.7248C19.7366 18.956 19.5961 19.1661 19.419 19.343C19.2421 19.5201 19.0321 19.6606 18.8008 19.7564C18.5696 19.8523 18.3217 19.9016 18.0714 19.9016C17.8211 19.9016 17.5732 19.8523 17.342 19.7564C17.1108 19.6606 16.9007 19.5201 16.7238 19.343L16.6667 19.2858C16.4422 19.0663 16.1571 18.919 15.8482 18.863C15.5392 18.807 15.2206 18.8448 14.9333 18.9715C14.6516 19.0923 14.4114 19.2927 14.2422 19.5482C14.073 19.8038 13.9822 20.1032 13.9809 20.4096V20.5715C13.9809 21.0767 13.7803 21.5612 13.4231 21.9184C13.0658 22.2756 12.5814 22.4763 12.0762 22.4763C11.571 22.4763 11.0865 22.2756 10.7293 21.9184C10.3721 21.5612 10.1714 21.0767 10.1714 20.5715V20.4858C10.164 20.1706 10.062 19.8649 9.87858 19.6084C9.69514 19.3519 9.43879 19.1566 9.14285 19.0477C8.8556 18.921 8.53695 18.8831 8.22801 18.9392C7.91906 18.9952 7.63397 19.1425 7.40952 19.362L7.35238 19.4192C7.17547 19.5963 6.9654 19.7368 6.73417 19.8326C6.50293 19.9285 6.25507 19.9778 6.00476 19.9778C5.75444 19.9778 5.50658 19.9285 5.27535 19.8326C5.04411 19.7368 4.83404 19.5963 4.65714 19.4192C4.48004 19.2423 4.33955 19.0322 4.24369 18.801C4.14783 18.5697 4.0985 18.3219 4.0985 18.0715C4.0985 17.8212 4.14783 17.5734 4.24369 17.3421C4.33955 17.1109 4.48004 16.9008 4.65714 16.7239L4.71428 16.6668C4.93384 16.4423 5.08112 16.1572 5.13714 15.8483C5.19316 15.5393 5.15534 15.2207 5.02857 14.9334C4.90784 14.6518 4.70738 14.4115 4.45187 14.2423C4.19635 14.0731 3.89693 13.9823 3.59047 13.9811H3.42857C2.92339 13.9811 2.43891 13.7804 2.0817 13.4232C1.72448 13.066 1.5238 12.5815 1.5238 12.0763C1.5238 11.5711 1.72448 11.0866 2.0817 10.7294C2.43891 10.3722 2.92339 10.1715 3.42857 10.1715H3.51428C3.82951 10.1642 4.13524 10.0621 4.39171 9.8787C4.64818 9.69526 4.84353 9.43891 4.95238 9.14297C5.07915 8.85572 5.11697 8.53708 5.06095 8.22813C5.00493 7.91918 4.85765 7.6341 4.63809 7.40964L4.58095 7.3525C4.40385 7.1756 4.26336 6.96552 4.1675 6.73429C4.07164 6.50305 4.02231 6.25519 4.02231 6.00488C4.02231 5.75456 4.07164 5.5067 4.1675 5.27547C4.26336 5.04423 4.40385 4.83416 4.58095 4.65726C4.75785 4.48016 4.96792 4.33967 5.19916 4.24381C5.43039 4.14796 5.67825 4.09862 5.92857 4.09862C6.17888 4.09862 6.42674 4.14796 6.65798 4.24381C6.88921 4.33967 7.09928 4.48016 7.27618 4.65726L7.33333 4.7144C7.55778 4.93396 7.84287 5.08125 8.15181 5.13726C8.46076 5.19328 8.77941 5.15546 9.06666 5.02869H9.14285C9.42454 4.90796 9.66477 4.7075 9.83399 4.45199C10.0032 4.19647 10.094 3.89706 10.0952 3.59059V3.42869C10.0952 2.92351 10.2959 2.43903 10.6531 2.08182C11.0103 1.72461 11.4948 1.52393 12 1.52393C12.5052 1.52393 12.9897 1.72461 13.3469 2.08182C13.7041 2.43903 13.9048 2.92351 13.9048 3.42869V3.5144C13.906 3.82087 13.9968 4.12028 14.166 4.3758C14.3352 4.63131 14.5755 4.83177 14.8571 4.9525C15.1444 5.07927 15.463 5.11709 15.772 5.06107C16.0809 5.00505 16.366 4.85777 16.5905 4.63821L16.6476 4.58107C16.8245 4.40397 17.0346 4.26348 17.2658 4.16762C17.4971 4.07177 17.7449 4.02243 17.9952 4.02243C18.2455 4.02243 18.4934 4.07177 18.7246 4.16762C18.9559 4.26348 19.1659 4.40397 19.3429 4.58107C19.5199 4.75797 19.6604 4.96804 19.7563 5.19928C19.8522 5.43051 19.9015 5.67837 19.9015 5.92869C19.9015 6.179 19.8522 6.42686 19.7563 6.6581C19.6604 6.88933 19.5199 7.09941 19.3429 7.27631L19.2857 7.33345C19.0661 7.55791 18.9189 7.84299 18.8628 8.15194C18.8068 8.46088 18.8446 8.77953 18.9714 9.06678V9.14297C19.0921 9.42466 19.2926 9.66489 19.5481 9.83411C19.8036 10.0033 20.1031 10.0941 20.4095 10.0954H20.5714C21.0766 10.0954 21.5611 10.296 21.9183 10.6532C22.2755 11.0105 22.4762 11.4949 22.4762 12.0001C22.4762 12.5053 22.2755 12.9898 21.9183 13.347C21.5611 13.7042 21.0766 13.9049 20.5714 13.9049H20.4857C20.1792 13.9061 19.8798 13.9969 19.6243 14.1661C19.3688 14.3353 19.1683 14.5756 19.0476 14.8573Z" stroke="#FF4081" stroke-width="2" stroke-linecap="round" stroke-linejoin="round"/>
</g>
<defs>
<clipPath id="clip0_116_1924">
<rect width="22.8571" height="22.8571" fill="white" transform="translate(0.571411 0.571533)"/>
</clipPath>
</defs>
</svg>
