<svg width="55" height="25" viewBox="0 0 55 25" fill="none" xmlns="http://www.w3.org/2000/svg">
<path fill-rule="evenodd" clip-rule="evenodd" d="M19 1.82081C15.402 4.01543 13 7.9772 13 12.5C13 17.0228 15.402 20.9846 19 23.1792C17.1061 24.3344 14.8808 25 12.5 25C5.59644 25 0 19.4036 0 12.5C0 5.59644 5.59644 0 12.5 0C14.8808 0 17.1061 0.665576 19 1.82081Z" fill="#673AB7"/>
<path fill-rule="evenodd" clip-rule="evenodd" d="M34 1.82081C30.402 4.01543 28 7.9772 28 12.5C28 17.0228 30.402 20.9846 34 23.1792C32.1061 24.3344 29.8808 25 27.5 25C20.5964 25 15 19.4036 15 12.5C15 5.59644 20.5964 0 27.5 0C29.8808 0 32.1061 0.665576 34 1.82081Z" fill="#FAFAFA"/>
<circle cx="42.5" cy="12.5" r="12.5" fill="#FF4081"/>
</svg>
