<svg width="24" height="24" viewBox="0 0 24 24" fill="none" xmlns="http://www.w3.org/2000/svg">
<path d="M6.14286 16.8573C6.95239 16.2382 7.85715 15.75 8.85715 15.3925C9.85715 15.0357 10.9048 14.8573 12 14.8573C13.0952 14.8573 14.1429 15.0357 15.1429 15.3925C16.1429 15.75 17.0476 16.2382 17.8571 16.8573C18.4127 16.2065 18.8454 15.4684 19.1552 14.643C19.4645 13.8176 19.6191 12.9366 19.6191 12.0001C19.6191 9.88902 18.8771 8.09124 17.3933 6.60679C15.9089 5.12298 14.1111 4.38108 12 4.38108C9.88889 4.38108 8.09143 5.12298 6.60762 6.60679C5.12318 8.09124 4.38096 9.88902 4.38096 12.0001C4.38096 12.9366 4.53588 13.8176 4.84572 14.643C5.15493 15.4684 5.58731 16.2065 6.14286 16.8573ZM12 12.9525C11.0635 12.9525 10.2737 12.6312 9.63048 11.9887C8.98794 11.3455 8.66667 10.5557 8.66667 9.61918C8.66667 8.68267 8.98794 7.89283 9.63048 7.24965C10.2737 6.60711 11.0635 6.28584 12 6.28584C12.9365 6.28584 13.7264 6.60711 14.3695 7.24965C15.0121 7.89283 15.3333 8.68267 15.3333 9.61918C15.3333 10.5557 15.0121 11.3455 14.3695 11.9887C13.7264 12.6312 12.9365 12.9525 12 12.9525ZM12 21.5239C10.6825 21.5239 9.44445 21.2738 8.28572 20.7735C7.12699 20.2738 6.11905 19.5954 5.26191 18.7382C4.40477 17.8811 3.72636 16.8731 3.22667 15.7144C2.72636 14.5557 2.4762 13.3176 2.4762 12.0001C2.4762 10.6827 2.72636 9.44457 3.22667 8.28584C3.72636 7.12711 4.40477 6.11918 5.26191 5.26203C6.11905 4.40489 7.12699 3.72616 8.28572 3.22584C9.44445 2.72616 10.6825 2.47632 12 2.47632C13.3175 2.47632 14.5556 2.72616 15.7143 3.22584C16.873 3.72616 17.881 4.40489 18.7381 5.26203C19.5952 6.11918 20.2737 7.12711 20.7733 8.28584C21.2737 9.44457 21.5238 10.6827 21.5238 12.0001C21.5238 13.3176 21.2737 14.5557 20.7733 15.7144C20.2737 16.8731 19.5952 17.8811 18.7381 18.7382C17.881 19.5954 16.873 20.2738 15.7143 20.7735C14.5556 21.2738 13.3175 21.5239 12 21.5239ZM12 19.6192C12.8413 19.6192 13.6349 19.4963 14.381 19.2506C15.127 19.0043 15.8095 18.6509 16.4286 18.1906C15.8095 17.7303 15.127 17.377 14.381 17.1306C13.6349 16.8849 12.8413 16.762 12 16.762C11.1587 16.762 10.3651 16.8849 9.61905 17.1306C8.87302 17.377 8.19048 17.7303 7.57143 18.1906C8.19048 18.6509 8.87302 19.0043 9.61905 19.2506C10.3651 19.4963 11.1587 19.6192 12 19.6192ZM12 11.0477C12.4127 11.0477 12.754 10.9128 13.0238 10.643C13.2937 10.3731 13.4286 10.0319 13.4286 9.61918C13.4286 9.20648 13.2937 8.86521 13.0238 8.59537C12.754 8.32552 12.4127 8.1906 12 8.1906C11.5873 8.1906 11.246 8.32552 10.9762 8.59537C10.7064 8.86521 10.5714 9.20648 10.5714 9.61918C10.5714 10.0319 10.7064 10.3731 10.9762 10.643C11.246 10.9128 11.5873 11.0477 12 11.0477Z" fill="#673AB7"/>
</svg>
